{"title":"Euro.Angels.Hardball.7.Anal.Ringmaster.DVDRip.SS.x264.Iou1","uid":9124730,"size":1234530577,"categoryP":"porn","categoryS":"movies","magnet":"?xt=urn:btih:482f54aaf6ba3f022f4ff8e0ba1e25386b3792db&amp;dn=Euro.Angels.Hardball.7.Anal.Ringmaster.DVDRip.SS.x264.Iou1&amp;tr=udp%3A%2F%2Ftracker.openbittorrent.com%3A80&amp;tr=udp%3A%2F%2Fopen.demonii.com%3A1337&amp;tr=udp%3A%2F%2Ftracker.coppersurfer.tk%3A6969&amp;tr=udp%3A%2F%2Fexodus.desync.com%3A6969","seeders":1,"leechers":3,"uploader":"jaybee211","files":-1,"time":1383195712,"description":"Genre                                    : XXX\nFiles                                    : 5\nFormat                                   : MPEG-4\nFormat profile                           : Base Media / Version 2\nCodec ID                                 : mp42\nFile size                                : 1.14 GiB\nDuration                                 : 2h 16mn 39s\nOverall bit rate mode                    : Variable\nOverall bit rate                         : 1 204 Kbps\n\nVideo\nID                                       : 1\nFormat                                   : AVC\nFormat/Info                              : Advanced Video Codec\nFormat profile                           : &lt;a class=&quot;__cf_email__&quot; href=&quot;/cdn-cgi/l/email-protection&quot; data-cfemail=&quot;672f0e000f272b544957&quot;&gt;[email&amp;#160;protected]&lt;/a&gt;&lt;script cf-hash='f9e31' type=&quot;text/javascript&quot;&gt;\n/* &lt;![CDATA[ */!function(){try{var t=&quot;currentScript&quot;in document?document.currentScript:function(){for(var t=document.getElementsByTagName(&quot;script&quot;),e=t.length;e--;)if(t[e].getAttribute(&quot;cf-hash&quot;))return t[e]}();if(t&amp;&amp;t.previousSibling){var e,r,n,i,c=t.previousSibling,a=c.getAttribute(&quot;data-cfemail&quot;);if(a){for(e=&quot;&quot;,r=parseInt(a.substr(0,2),16),n=2;a.length-n;n+=2)i=parseInt(a.substr(n,2),16)^r,e+=String.fromCharCode(i);e=document.createTextNode(e),c.parentNode.replaceChild(e,c)}}}catch(u){}}();/* ]]&gt; */&lt;/script&gt;\nFormat settings, CABAC                   : Yes\nFormat settings, ReFrames                : 3 frames\nCodec ID                                 : avc1\nCodec ID/Info                            : Advanced Video Coding\nDuration                                 : 2h 16mn 39s\nBit rate mode                            : Variable\nBit rate                                 : 1 136 Kbps\nWidth                                    : 640 pixels\nHeight                                   : 480 pixels\nDisplay aspect ratio                     : 4:3\nFrame rate mode                          : Variable\nFrame rate                               : 29.970 fps\nMinimum frame rate                       : 15.978 fps\nMaximum frame rate                       : 30.000 fps\nColor space                              : YUV\nChroma subsampling                       : 4:2:0\nBit depth                                : 8 bits\nScan type                                : Progressive\nBits/(Pixel*Frame)                       : 0.123\nStream size                              : 1.08 GiB (94%)\nWriting library                          : x264 core 65\n\nAudio\nID                                       : 2\nFormat                                   : AAC\nFormat/Info                              : Advanced Audio Codec\nFormat profile                           : LC\nCodec ID                                 : 40\nDuration                                 : 2h 16mn 39s\nBit rate mode                            : Variable\nBit rate                                 : 64.0 Kbps\nMaximum bit rate                         : 90.4 Kbps\nChannel(s)                               : 2 channels\nChannel positions                        : Front: L R\nSampling rate                            : 22.05 KHz\nCompression mode                         : Lossy\nDelay relative to video                  : 67ms\nStream size                              : 68 MiB (6%)\nLanguage                                 : English\n\nScreens. &lt;a href=&quot; http://bayimg.com/oabAkaafl&quot; rel=&quot;nofollow&quot; target=&quot;_NEW&quot;&gt; http://bayimg.com/oabAkaafl&lt;/a&gt;\n\n         &lt;a href=&quot; http://bayimg.com/OabalaAFl&quot; rel=&quot;nofollow&quot; target=&quot;_NEW&quot;&gt; http://bayimg.com/OabalaAFl&lt;/a&gt;\n\n         &lt;a href=&quot; http://bayimg.com/OaBaMAaFl&quot; rel=&quot;nofollow&quot; target=&quot;_NEW&quot;&gt; http://bayimg.com/OaBaMAaFl&lt;/a&gt;\n\n         &lt;a href=&quot; http://bayimg.com/OaBAoaAFL&quot; rel=&quot;nofollow&quot; target=&quot;_NEW&quot;&gt; http://bayimg.com/OaBAoaAFL&lt;/a&gt;\n\n         &lt;a href=&quot; http://bayimg.com/PABaJaaFL&quot; rel=&quot;nofollow&quot; target=&quot;_NEW&quot;&gt; http://bayimg.com/PABaJaaFL&lt;/a&gt;\n\nCovers. &lt;a href=&quot; http://www.adultdvdmarketplace.com/dvd_view_29779.html&quot; rel=&quot;nofollow&quot; target=&quot;_NEW&quot;&gt; http://www.adultdvdmarketplace.com/dvd_view_29779.html&lt;/a&gt;\n\nEnjoy.","torrent":{"xt":"urn:btih:482f54aaf6ba3f022f4ff8e0ba1e25386b3792db","amp;dn":"Euro.Angels.Hardball.7.Anal.Ringmaster.DVDRip.SS.x264.Iou1","amp;tr":["udp%3A%2F%2Ftracker.openbittorrent.com%3A80","udp%3A%2F%2Fopen.demonii.com%3A1337","udp%3A%2F%2Ftracker.coppersurfer.tk%3A6969","udp%3A%2F%2Fexodus.desync.com%3A6969"],"infoHash":"482f54aaf6ba3f022f4ff8e0ba1e25386b3792db","infoHashBuffer":{"type":"Buffer","data":[72,47,84,170,246,186,63,2,47,79,248,224,186,30,37,56,107,55,146,219]},"announce":[],"urlList":[]}}